<svg width="73" height="67" viewBox="0 0 73 67" fill="none" xmlns="http://www.w3.org/2000/svg">
  <g opacity="0.4" filter="url(#filter0_f_494_7832)">
    <path
      d="M12.0857 24.3779C12.0857 20.1191 15.5381 16.6666 19.797 16.6666H53.7459C58.0047 16.6666 61.4571 20.1191 61.4571 24.3779V42.3045C61.4571 46.5633 58.0046 50.0157 53.7458 50.0157C53.594 50.0157 53.4427 50.0157 53.2918 50.0157C52.1599 50.0157 52.0033 55 50.9182 55C49.7896 55 47.7343 50.0157 46.6457 50.0157C37.5641 50.0157 29.6817 50.0157 19.7989 50.0157C15.5401 50.0157 12.0857 46.5633 12.0857 42.3044V24.3779Z"
      fill="url(#paint0_linear_494_7832)" />
    <path
      d="M12.2399 24.3779C12.2399 20.2043 15.6233 16.8209 19.797 16.8209H53.7459C57.9195 16.8209 61.3029 20.2043 61.3029 24.3779V42.3045C61.3029 46.4781 57.9195 49.8615 53.7458 49.8615H53.7449H53.744H53.7431H53.7422H53.7414H53.7405H53.7396H53.7387H53.7378H53.7369H53.736H53.7351H53.7342H53.7334H53.7325H53.7316H53.7307H53.7298H53.7289H53.728H53.7271H53.7262H53.7254H53.7245H53.7236H53.7227H53.7218H53.7209H53.72H53.7191H53.7182H53.7174H53.7165H53.7156H53.7147H53.7138H53.7129H53.712H53.7111H53.7102H53.7094H53.7085H53.7076H53.7067H53.7058H53.7049H53.704H53.7031H53.7022H53.7014H53.7005H53.6996H53.6987H53.6978H53.6969H53.696H53.6951H53.6942H53.6934H53.6925H53.6916H53.6907H53.6898H53.6889H53.688H53.6871H53.6862H53.6854H53.6845H53.6836H53.6827H53.6818H53.6809H53.68H53.6791H53.6782H53.6774H53.6765H53.6756H53.6747H53.6738H53.6729H53.672H53.6711H53.6702H53.6694H53.6685H53.6676H53.6667H53.6658H53.6649H53.664H53.6631H53.6623H53.6614H53.6605H53.6596H53.6587H53.6578H53.6569H53.656H53.6551H53.6543H53.6534H53.6525H53.6516H53.6507H53.6498H53.6489H53.648H53.6472H53.6463H53.6454H53.6445H53.6436H53.6427H53.6418H53.6409H53.64H53.6392H53.6383H53.6374H53.6365H53.6356H53.6347H53.6338H53.6329H53.6321H53.6312H53.6303H53.6294H53.6285H53.6276H53.6267H53.6258H53.625H53.6241H53.6232H53.6223H53.6214H53.6205H53.6196H53.6187H53.6178H53.617H53.6161H53.6152H53.6143H53.6134H53.6125H53.6116H53.6107H53.6099H53.609H53.6081H53.6072H53.6063H53.6054H53.6045H53.6036H53.6028H53.6019H53.601H53.6001H53.5992H53.5983H53.5974H53.5965H53.5957H53.5948H53.5939H53.593H53.5921H53.5912H53.5903H53.5894H53.5886H53.5877H53.5868H53.5859H53.585H53.5841H53.5832H53.5823H53.5815H53.5806H53.5797H53.5788H53.5779H53.577H53.5761H53.5752H53.5744H53.5735H53.5726H53.5717H53.5708H53.5699H53.569H53.5681H53.5673H53.5664H53.5655H53.5646H53.5637H53.5628H53.5619H53.5611H53.5602H53.5593H53.5584H53.5575H53.5566H53.5557H53.5548H53.554H53.5531H53.5522H53.5513H53.5504H53.5495H53.5486H53.5477H53.5469H53.546H53.5451H53.5442H53.5433H53.5424H53.5415H53.5406H53.5398H53.5389H53.538H53.5371H53.5362H53.5353H53.5344H53.5336H53.5327H53.5318H53.5309H53.53H53.5291H53.5282H53.5273H53.5265H53.5256H53.5247H53.5238H53.5229H53.522H53.5211H53.5203H53.5194H53.5185H53.5176H53.5167H53.5158H53.5149H53.514H53.5132H53.5123H53.5114H53.5105H53.5096H53.5087H53.5078H53.507H53.5061H53.5052H53.5043H53.5034H53.5025H53.5016H53.5007H53.4999H53.499H53.4981H53.4972H53.4963H53.4954H53.4945H53.4937H53.4928H53.4919H53.491H53.4901H53.4892H53.4883H53.4875H53.4866H53.4857H53.4848H53.4839H53.483H53.4821H53.4813H53.4804H53.4795H53.4786H53.4777H53.4768H53.4759H53.475H53.4742H53.4733H53.4724H53.4715H53.4706H53.4697H53.4688H53.468H53.4671H53.4662H53.4653H53.4644H53.4635H53.4626H53.4618H53.4609H53.46H53.4591H53.4582H53.4573H53.4564H53.4556H53.4547H53.4538H53.4529H53.452H53.4511H53.4502H53.4494H53.4485H53.4476H53.4467H53.4458H53.4449H53.444H53.4432H53.4423H53.4414H53.4405H53.4396H53.4387H53.4378H53.437H53.4361H53.4352H53.4343H53.4334H53.4325H53.4316H53.4308H53.4299H53.429H53.4281H53.4272H53.4263H53.4254H53.4246H53.4237H53.4228H53.4219H53.421H53.4201H53.4192H53.4184H53.4175H53.4166H53.4157H53.4148H53.4139H53.413H53.4122H53.4113H53.4104H53.4095H53.4086H53.4077H53.4068H53.406H53.4051H53.4042H53.4033H53.4024H53.4015H53.4007H53.3998H53.3989H53.398H53.3971H53.3962H53.3953H53.3945H53.3936H53.3927H53.3918H53.3909H53.39H53.3891H53.3883H53.3874H53.3865H53.3856H53.3847H53.3838H53.3829H53.3821H53.3812H53.3803H53.3794H53.3785H53.3776H53.3768H53.3759H53.375H53.3741H53.3732H53.3723H53.3714H53.3706H53.3697H53.3688H53.3679H53.367H53.3661H53.3652H53.3644H53.3635H53.3626H53.3617H53.3608H53.3599H53.3591H53.3582H53.3573H53.3564H53.3555H53.3546H53.3537H53.3529H53.352H53.3511H53.3502H53.3493H53.3484H53.3476H53.3467H53.3458H53.3449H53.344H53.3431H53.3422H53.3414H53.3405H53.3396H53.3387H53.3378H53.3369H53.3361H53.3352H53.3343H53.3334H53.3325H53.3316H53.3307H53.3299H53.329H53.3281H53.3272H53.3263H53.3254H53.3246H53.3237H53.3228H53.3219H53.321H53.3201H53.3193H53.3184H53.3175H53.3166H53.3157H53.3148H53.3139H53.3131H53.3122H53.3113H53.3104H53.3095H53.3086H53.3078H53.3069H53.306H53.3051H53.3042H53.3033H53.3025H53.3016H53.3007H53.2998H53.2989H53.298H53.2971H53.2963H53.2954H53.2945H53.2936H53.2927H53.2918C53.0872 49.8615 52.9218 49.9757 52.7914 50.1306C52.6614 50.2849 52.551 50.4968 52.4532 50.7362C52.2575 51.2155 52.0953 51.8501 51.9379 52.4699L51.9297 52.5026C51.7735 53.1178 51.6216 53.7164 51.4443 54.1644C51.3539 54.3927 51.2612 54.5705 51.1654 54.6888C51.0696 54.8071 50.988 54.8457 50.9182 54.8457C50.8312 54.8457 50.7105 54.7956 50.553 54.6665C50.3992 54.5405 50.23 54.3557 50.0487 54.1257C49.6862 53.6659 49.2939 53.0502 48.8972 52.4252L48.8732 52.3875C48.487 51.7789 48.097 51.1646 47.7356 50.6998C47.5512 50.4627 47.3694 50.2582 47.1946 50.1117C47.0241 49.9687 46.8374 49.8615 46.6457 49.8615H46.5925H46.5393H46.4862H46.4331H46.38H46.3269H46.2739H46.2209H46.1679H46.1149H46.062H46.0091H45.9562H45.9033H45.8505H45.7977H45.7449H45.6922H45.6395H45.5867H45.5341H45.4814H45.4288H45.3762H45.3236H45.271H45.2185H45.166H45.1135H45.061H45.0086H44.9562H44.9038H44.8514H44.799H44.7467H44.6944H44.6421H44.5899H44.5376H44.4854H44.4332H44.381H44.3289H44.2768H44.2246H44.1726H44.1205H44.0684H44.0164H43.9644H43.9124H43.8604H43.8085H43.7566H43.7047H43.6528H43.6009H43.549H43.4972H43.4454H43.3936H43.3418H43.2901H43.2383H43.1866H43.1349H43.0832H43.0315H42.9799H42.9283H42.8766H42.8251H42.7735H42.7219H42.6704H42.6188H42.5673H42.5158H42.4643H42.4129H42.3614H42.31H42.2586H42.2072H42.1558H42.1044H42.053H42.0017H41.9504H41.8991H41.8478H41.7965H41.7452H41.6939H41.6427H41.5915H41.5402H41.489H41.4379H41.3867H41.3355H41.2844H41.2332H41.1821H41.131H41.0799H41.0288H40.9777H40.9267H40.8756H40.8246H40.7735H40.7225H40.6715H40.6205H40.5695H40.5186H40.4676H40.4166H40.3657H40.3148H40.2638H40.2129H40.162H40.1111H40.0602H40.0094H39.9585H39.9076H39.8568H39.806H39.7551H39.7043H39.6535H39.6027H39.5519H39.5011H39.4503H39.3995H39.3488H39.298H39.2473H39.1965H39.1458H39.095H39.0443H38.9936H38.9429H38.8922H38.8415H38.7908H38.7401H38.6894H38.6387H38.588H38.5374H38.4867H38.4361H38.3854H38.3348H38.2841H38.2335H38.1828H38.1322H38.0816H38.0309H37.9803H37.9297H37.8791H37.8285H37.7779H37.7273H37.6767H37.6261H37.5755H37.5249H37.4743H37.4237H37.3731H37.3225H37.2719H37.2213H37.1707H37.1202H37.0696H37.019H36.9684H36.9178H36.8673H36.8167H36.7661H36.7155H36.6649H36.6144H36.5638H36.5132H36.4626H36.412H36.3615H36.3109H36.2603H36.2097H36.1591H36.1085H36.0579H36.0073H35.9567H35.9061H35.8555H35.8049H35.7543H35.7037H35.6531H35.6025H35.5519H35.5013H35.4506H35.4H35.3494H35.2987H35.2481H35.1974H35.1468H35.0961H35.0455H34.9948H34.9441H34.8935H34.8428H34.7921H34.7414H34.6907H34.64H34.5893H34.5386H34.4879H34.4371H34.3864H34.3357H34.2849H34.2342H34.1834H34.1326H34.0819H34.0311H33.9803H33.9295H33.8787H33.8279H33.777H33.7262H33.6754H33.6245H33.5736H33.5228H33.4719H33.421H33.3701H33.3192H33.2683H33.2174H33.1664H33.1155H33.0645H33.0136H32.9626H32.9116H32.8606H32.8096H32.7586H32.7075H32.6565H32.6054H32.5544H32.5033H32.4522H32.4011H32.35H32.2989H32.2477H32.1966H32.1454H32.0942H32.043H31.9918H31.9406H31.8894H31.8381H31.7869H31.7356H31.6843H31.633H31.5817H31.5304H31.479H31.4276H31.3763H31.3249H31.2735H31.222H31.1706H31.1192H31.0677H31.0162H30.9647H30.9132H30.8616H30.8101H30.7585H30.7069H30.6553H30.6037H30.5521H30.5004H30.4488H30.3971H30.3454H30.2936H30.2419H30.1901H30.1384H30.0866H30.0347H29.9829H29.931H29.8792H29.8273H29.7754H29.7234H29.6715H29.6195H29.5675H29.5155H29.4635H29.4114H29.3593H29.3072H29.2551H29.203H29.1508H29.0987H29.0465H28.9942H28.942H28.8897H28.8374H28.7851H28.7328H28.6804H28.6281H28.5757H28.5232H28.4708H28.4183H28.3658H28.3133H28.2608H28.2082H28.1556H28.103H28.0504H27.9977H27.945H27.8923H27.8396H27.7868H27.734H27.6812H27.6284H27.5755H27.5226H27.4697H27.4168H27.3638H27.3108H27.2578H27.2048H27.1517H27.0986H27.0455H26.9923H26.9392H26.886H26.8327H26.7795H26.7262H26.6729H26.6195H26.5662H26.5128H26.4593H26.4059H26.3524H26.2989H26.2453H26.1917H26.1381H26.0845H26.0309H25.9772H25.9234H25.8697H25.8159H25.7621H25.7083H25.6544H25.6005H25.5465H25.4926H25.4386H25.3846H25.3305H25.2764H25.2223H25.1681H25.1139H25.0597H25.0055H24.9512H24.8969H24.8425H24.7881H24.7337H24.6793H24.6248H24.5703H24.5157H24.4612H24.4065H24.3519H24.2972H24.2425H24.1877H24.1329H24.0781H24.0233H23.9684H23.9134H23.8585H23.8035H23.7484H23.6934H23.6383H23.5831H23.5279H23.4727H23.4175H23.3622H23.3069H23.2515H23.1961H23.1407H23.0852H23.0297H22.9741H22.9185H22.8629H22.8073H22.7516H22.6958H22.64H22.5842H22.5284H22.4725H22.4165H22.3606H22.3046H22.2485H22.1924H22.1363H22.0801H22.0239H21.9677H21.9114H21.855H21.7987H21.7423H21.6858H21.6293H21.5728H21.5162H21.4596H21.4029H21.3462H21.2895H21.2327H21.1759H21.119H21.0621H21.0051H20.9481H20.8911H20.834H20.7769H20.7197H20.6625H20.6052H20.5479H20.4906H20.4332H20.3758H20.3183H20.2607H20.2032H20.1456H20.0879H20.0302H19.9725H19.9147H19.8568H19.7989C15.6253 49.8615 12.2399 46.478 12.2399 42.3044V24.3779Z"
      stroke="#979797" stroke-width="0.308451" />
  </g>
  <path
    d="M9 17.6925C9 12.8918 12.8918 9 17.6925 9H54.3075C59.1082 9 63 12.8918 63 17.6925V37.6584C63 42.4592 59.1082 46.351 54.3074 46.351C54.2279 46.351 54.1485 46.351 54.0692 46.351C52.8311 46.351 52.6598 51.9333 51.4731 51.9333C50.2387 51.9333 47.9907 46.351 46.8 46.351C36.9464 46.351 28.3835 46.351 17.695 46.351C12.8942 46.351 9 42.4592 9 37.6584V17.6925Z"
    fill="url(#paint1_linear_494_7832)" />
  <g filter="url(#filter1_f_494_7832)">
    <rect x="9" y="9" width="32.4" height="24.5333" rx="6.16902" fill="#F0C97E" fill-opacity="0.3" />
  </g>
  <defs>
    <filter id="filter0_f_494_7832" x="0.575322" y="5.15625" width="72.3922" height="61.3541"
      filterUnits="userSpaceOnUse" color-interpolation-filters="sRGB">
      <feFlood flood-opacity="0" result="BackgroundImageFix" />
      <feBlend mode="normal" in="SourceGraphic" in2="BackgroundImageFix" result="shape" />
      <feGaussianBlur stdDeviation="5.75519" result="effect1_foregroundBlur_494_7832" />
    </filter>
    <filter id="filter1_f_494_7832" x="0.367223" y="0.367223" width="49.6656" height="41.7989"
      filterUnits="userSpaceOnUse" color-interpolation-filters="sRGB">
      <feFlood flood-opacity="0" result="BackgroundImageFix" />
      <feBlend mode="normal" in="SourceGraphic" in2="BackgroundImageFix" result="shape" />
      <feGaussianBlur stdDeviation="4.31639" result="effect1_foregroundBlur_494_7832" />
    </filter>
    <linearGradient id="paint0_linear_494_7832" x1="12.0857" y1="13.5166" x2="40.3983" y2="80.6421"
      gradientUnits="userSpaceOnUse">
      <stop stop-color="#FF9E6B" />
      <stop offset="1" stop-color="#FFD55E" />
    </linearGradient>
    <linearGradient id="paint1_linear_494_7832" x1="17.9519" y1="5.18978" x2="52.8259" y2="54.9141"
      gradientUnits="userSpaceOnUse">
      <stop offset="0.283719" stop-color="#DAA847" />
      <stop offset="1" stop-color="#F0C97E" />
    </linearGradient>
  </defs>
</svg>