<svg width="16" height="16" viewBox="0 0 128 128" fill="currentColor" xmlns="http://www.w3.org/2000/svg">
  <path opacity="0.5"
    d="M108.836 87.1822C103.123 80.992 96.1895 76.0519 88.473 72.6731C80.7566 69.2943 72.4241 67.55 64.0003 67.55C55.5766 67.55 47.2441 69.2943 39.5277 72.6731C31.8112 76.0519 24.878 80.992 19.1648 87.1822C18.2827 88.1575 17.7893 89.4227 17.7781 90.7377V112.071C17.7968 113.473 18.367 114.812 19.3651 115.796C20.3633 116.781 21.7092 117.333 23.1115 117.333H104.889C106.304 117.333 107.66 116.771 108.66 115.771C109.661 114.771 110.223 113.414 110.223 112V90.6666C110.194 89.3762 109.702 88.1392 108.836 87.1822Z"
    fill="white" />
  <path opacity="0.5"
    d="M64.0003 60.4445C77.7461 60.4445 88.8892 49.3013 88.8892 35.5556C88.8892 21.8098 77.7461 10.6667 64.0003 10.6667C50.2546 10.6667 39.1115 21.8098 39.1115 35.5556C39.1115 49.3013 50.2546 60.4445 64.0003 60.4445Z"
    fill="white" />
</svg>